<?xml version="1.0" encoding="UTF-8" standalone="no"?>
<svg width="640" height="400" xmlns="http://www.w3.org/2000/svg">
<rect width="100%" height="100%" fill="#b2b2b2" />
<g transform="translate(103, 50)">
  <rect x="0" y="0" width="436" height="146" fill="#0055aa" />
  <rect x="57" y="146" width="163" height="10" fill="#0055aa" />
  <rect x="437" y="18" width="1" height="155" fill="#ffffff" />
  <rect x="437" y="18" width="12" height="2" fill="#ffffff" />
  <rect x="223" y="14" width="190" height="128" fill="none" stroke="#ffffff" stroke-width="1" />
  <rect x="270" y="64" width="94" height="32" fill="#b2b2b2" />
  <rect x="420" y="44" width="16" height="56" fill="none" stroke="#000000" stroke-width="1" />
  <rect x="421" y="112" width="15" height="30" fill="none" stroke="#000000" stroke-width="1" />
  <rect x="12" y="12" width="16" height="16" fill="#000000" />
  <rect x="12" y="38" width="16" height="16" fill="#000000" />
  <rect x="12" y="64" width="16" height="16" fill="#000000" />
  <rect x="38" y="12" width="16" height="16" fill="#000000" />
  <rect x="38" y="38" width="16" height="16" fill="#000000" />
  <rect x="64" y="12" width="16" height="16" fill="#000000" />
  <rect x="64" y="38" width="16" height="16" fill="#000000" />
  <rect x="64" y="64" width="16" height="16" fill="#000000" />
  <rect x="88" y="8" width="2" height="8" fill="#000000" />
  <rect x="96" y="12" width="18" height="46" fill="#000000" />
  <rect x="126" y="4" width="84" height="8" fill="#000000" />
  <rect x="132" y="30" width="42" height="44" fill="#000000" />
  <rect x="39" y="82" width="14" height="24" fill="#ffffff" />
  <rect x="48" y="64" width="5" height="10" fill="#000000" />
  <rect x="21" y="118" width="10" height="16" fill="#000000" />
  <rect x="62" y="90" width="10" height="16" fill="#000000" />
  <rect x="68" y="118" width="10" height="16" fill="#000000" />
  <rect x="96" y="88" width="10" height="18" fill="#000000" />
  <rect x="95" y="118" width="10" height="18" fill="#000000" />
  <rect x="121" y="88" width="10" height="18" fill="#000000" />
  <rect x="121" y="118" width="10" height="18" fill="#000000" />
  <rect x="140" y="88" width="10" height="18" fill="#000000" />
  <rect x="140" y="118" width="10" height="18" fill="#000000" />
  <rect x="160" y="90" width="10" height="16" fill="#000000" />
  <rect x="160" y="118" width="10" height="18" fill="#000000" />
  <rect x="184" y="90" width="10" height="16" fill="#000000" />
  <rect x="180" y="120" width="10" height="16" fill="#000000" />
  <rect x="208" y="90" width="6" height="10" fill="#000000" />
  <rect x="191" y="28" width="8" height="12" fill="#000000" />
  <rect x="189" y="48" width="8" height="12" fill="#000000" />
  <rect x="196" y="116" width="4" height="24" fill="#ffffff" />
  <rect x="201" y="118" width="0" height="20" fill="#ffffff" />
  <g fill="#ffffff">
    <rect x="57" y="146" width="1" height="10" />
    <rect x="61" y="146" width="1" height="10" />
    <rect x="65" y="146" width="1" height="10" />
    <rect x="69" y="146" width="1" height="10" />
    <rect x="73" y="146" width="1" height="10" />
    <rect x="77" y="146" width="1" height="10" />
    <rect x="81" y="146" width="1" height="10" />
    <rect x="85" y="146" width="1" height="10" />
    <rect x="89" y="146" width="1" height="10" />
    <rect x="93" y="146" width="1" height="10" />
    <rect x="97" y="146" width="1" height="10" />
    <rect x="101" y="146" width="1" height="10" />
    <rect x="105" y="146" width="1" height="10" />
    <rect x="109" y="146" width="1" height="10" />
    <rect x="113" y="146" width="1" height="10" />
    <rect x="117" y="146" width="1" height="10" />
    <rect x="121" y="146" width="1" height="10" />
    <rect x="125" y="146" width="1" height="10" />
    <rect x="129" y="146" width="1" height="10" />
    <rect x="133" y="146" width="1" height="10" />
    <rect x="137" y="146" width="1" height="10" />
    <rect x="141" y="146" width="1" height="10" />
    <rect x="145" y="146" width="1" height="10" />
    <rect x="149" y="146" width="1" height="10" />
    <rect x="153" y="146" width="1" height="10" />
    <rect x="157" y="146" width="1" height="10" />
    <rect x="161" y="146" width="1" height="10" />
    <rect x="165" y="146" width="1" height="10" />
    <rect x="169" y="146" width="1" height="10" />
    <rect x="173" y="146" width="1" height="10" />
    <rect x="177" y="146" width="1" height="10" />
    <rect x="181" y="146" width="1" height="10" />
    <rect x="185" y="146" width="1" height="10" />
    <rect x="189" y="146" width="1" height="10" />
    <rect x="193" y="146" width="1" height="10" />
    <rect x="197" y="146" width="1" height="10" />
    <rect x="201" y="146" width="1" height="10" />
    <rect x="205" y="146" width="1" height="10" />
    <rect x="209" y="146" width="1" height="10" />
    <rect x="213" y="146" width="1" height="10" />
    <rect x="217" y="146" width="1" height="10" />
  </g>
</g>
</svg>
