<?xml version="1.0" encoding="UTF-8" standalone="no"?>
<svg width="640" height="400" xmlns="http://www.w3.org/2000/svg">
<rect width="100%" height="100%" fill="#b2b2b2" />
<g transform="translate(103, 50)">
  <rect x="0" y="0" width="225" height="146" fill="#0055aa" />
  <rect x="57" y="146" width="163" height="10" fill="#0055aa" />
  <g fill="#ffffff">
    <rect x="57" y="146" width="1" height="10" />
    <rect x="61" y="146" width="1" height="10" />
    <rect x="65" y="146" width="1" height="10" />
    <rect x="69" y="146" width="1" height="10" />
    <rect x="73" y="146" width="1" height="10" />
    <rect x="77" y="146" width="1" height="10" />
    <rect x="81" y="146" width="1" height="10" />
    <rect x="85" y="146" width="1" height="10" />
    <rect x="89" y="146" width="1" height="10" />
    <rect x="93" y="146" width="1" height="10" />
    <rect x="97" y="146" width="1" height="10" />
    <rect x="101" y="146" width="1" height="10" />
    <rect x="105" y="146" width="1" height="10" />
    <rect x="109" y="146" width="1" height="10" />
    <rect x="113" y="146" width="1" height="10" />
    <rect x="117" y="146" width="1" height="10" />
    <rect x="121" y="146" width="1" height="10" />
    <rect x="125" y="146" width="1" height="10" />
    <rect x="129" y="146" width="1" height="10" />
    <rect x="133" y="146" width="1" height="10" />
    <rect x="137" y="146" width="1" height="10" />
    <rect x="141" y="146" width="1" height="10" />
    <rect x="145" y="146" width="1" height="10" />
    <rect x="149" y="146" width="1" height="10" />
    <rect x="153" y="146" width="1" height="10" />
    <rect x="157" y="146" width="1" height="10" />
    <rect x="161" y="146" width="1" height="10" />
    <rect x="165" y="146" width="1" height="10" />
    <rect x="169" y="146" width="1" height="10" />
    <rect x="173" y="146" width="1" height="10" />
    <rect x="177" y="146" width="1" height="10" />
    <rect x="181" y="146" width="1" height="10" />
    <rect x="185" y="146" width="1" height="10" />
    <rect x="189" y="146" width="1" height="10" />
    <rect x="193" y="146" width="1" height="10" />
    <rect x="197" y="146" width="1" height="10" />
    <rect x="201" y="146" width="1" height="10" />
    <rect x="205" y="146" width="1" height="10" />
    <rect x="209" y="146" width="1" height="10" />
    <rect x="213" y="146" width="1" height="10" />
    <rect x="217" y="146" width="1" height="10" />
  </g>
  <rect x="96" y="44" width="36" height="36" fill="#000000" />
  <rect x="32" y="55" width="27" height="26" fill="#000000" />
  <rect x="83" y="2" width="90" height="10" fill="#000000" />
  <rect x="212" y="2" width="10" height="90" fill="#000000" />
  <rect x="24" y="1" width="10" height="4" fill="#000000" />
  <rect x="42" y="1" width="10" height="4" fill="#000000" />
  <rect x="24" y="14" width="10" height="4" fill="#000000" />
  <rect x="42" y="14" width="10" height="4" fill="#000000" />
  <rect x="32" y="36" width="4" height="6" fill="#000000" />
  <rect x="68" y="30" width="17" height="10" fill="#000000" />
  <rect x="28" y="122" width="7" height="5" fill="#000000" />
  <rect x="44" y="119" width="18" height="8" fill="#000000" />
  <rect x="78" y="119" width="18" height="8" fill="#000000" />
  <rect x="111" y="119" width="18" height="8" fill="#000000" />
  <rect x="145" y="119" width="18" height="8" fill="#000000" />
  <rect x="174" y="126" width="15" height="8" fill="#000000" />
  <rect x="167" y="38" width="8" height="5" fill="#000000" />
  <rect x="167" y="67" width="8" height="5" fill="#000000" />
  <rect x="166" y="80" width="9" height="6" fill="#000000" />
  <rect x="12" y="101" width="9" height="5" fill="#000000" />
  <rect x="5" y="4" width="6" height="28" fill="#ffffff" />
  <rect x="15" y="99" width="3" height="1" fill="#ffffff" />
  <rect x="168" y="80" width="1" height="6" fill="#ffffff" />
</g>
</svg>
